<svg id="PCHC_Today_Logo" data-name="PCHC Today Logo" xmlns="http://www.w3.org/2000/svg" xmlns:xlink="http://www.w3.org/1999/xlink" viewBox="0 0 229.72 60"><defs><style>.cls-1{fill:url(#linear-gradient);}.cls-2{fill:url(#linear-gradient-2);}.cls-3{fill:url(#linear-gradient-3);}.cls-4{fill:url(#linear-gradient-4);}.cls-5{fill:url(#linear-gradient-5);}.cls-6{fill:#be1e2d;}</style><linearGradient id="linear-gradient" x1="64.88" y1="60.7" x2="64.88" y2="-0.61" gradientUnits="userSpaceOnUse"><stop offset="0" stop-color="#6d4b39"/><stop offset="1" stop-color="#8b7167"/></linearGradient><linearGradient id="linear-gradient-2" x1="26.55" y1="46.59" x2="26.55" y2="22.13" gradientUnits="userSpaceOnUse"><stop offset="0" stop-color="#212058"/><stop offset="0.07" stop-color="#232360"/><stop offset="0.32" stop-color="#2a2c73"/><stop offset="0.56" stop-color="#2e317f"/><stop offset="0.81" stop-color="#2f3383"/></linearGradient><linearGradient id="linear-gradient-3" x1="48.35" y1="47.05" x2="48.35" y2="21.67" xlink:href="#linear-gradient-2"/><linearGradient id="linear-gradient-4" x1="74.89" y1="46.59" x2="74.89" y2="22.13" xlink:href="#linear-gradient-2"/><linearGradient id="linear-gradient-5" x1="101.57" y1="47.05" x2="101.57" y2="21.67" xlink:href="#linear-gradient-2"/></defs><title>pchctoday-logo</title><g id="PCHC_Logo" data-name="PCHC Logo"><path id="Swoosh" class="cls-1" d="M64.88,0C29.1,0,0,15.47,0,34.49,0,44,7.84,53.27,21.54,59.93h0C10,53.84,6.46,44,6.46,35.32c0-17.07,25.11-29.95,58.42-29.95s58.41,12.88,58.41,30c0,8.67-3.68,18.54-15.29,24.62l.07.06c13.78-6.67,21.68-16,21.68-25.51C129.75,15.47,100.65,0,64.88,0Z"/><g id="PCHC"><path id="P" class="cls-2" d="M18.5,26.74c-.05-1.53-.12-3.06-.21-4.61.4.05.84.09,1.31.13s1,0,1.61,0q1.24,0,2.58-.09t2.61-.09a16.27,16.27,0,0,1,4,.38,5.64,5.64,0,0,1,2.24,1.08,5.86,5.86,0,0,1,1.67,2.07,6.35,6.35,0,0,1,.53,2.74,8.3,8.3,0,0,1-.67,3.49,6,6,0,0,1-1.91,2.36,8,8,0,0,1-2.9,1.34,14.94,14.94,0,0,1-3.66.43H23.84c0,1.78,0,3.55.06,5.32s.11,3.52.23,5.25a11,11,0,0,0-1.32-.07H19.6a10.68,10.68,0,0,0-1.31.07q.13-2.21.21-4.5c.05-1.53.07-3.28.07-5.25V32C18.57,30,18.55,28.28,18.5,26.74Zm10.38,0a4,4,0,0,0-.82-1.48,3.16,3.16,0,0,0-1.21-.8,4.36,4.36,0,0,0-1.44-.25H24.23a1.55,1.55,0,0,0-.32,0c0,1.71,0,3.39-.05,5s0,3.3,0,5A9.8,9.8,0,0,0,25.68,34a4.23,4.23,0,0,0,1.72-.73,3.94,3.94,0,0,0,1.28-1.58,6.39,6.39,0,0,0,.5-2.74A7.5,7.5,0,0,0,28.88,26.69Z"/><path id="C" class="cls-3" d="M58.33,44.08a9.09,9.09,0,0,0-.28,1.51,15.91,15.91,0,0,1-7.26,1.46,16.43,16.43,0,0,1-5.54-.87,11.73,11.73,0,0,1-4.13-2.46A10.66,10.66,0,0,1,38.54,40a12.33,12.33,0,0,1-.89-4.7A15.31,15.31,0,0,1,38.81,29a11.4,11.4,0,0,1,3.1-4.2,12.29,12.29,0,0,1,4.5-2.37,19.06,19.06,0,0,1,5.38-.75,15.16,15.16,0,0,1,2,.14,20.24,20.24,0,0,1,2,.38,16.3,16.3,0,0,1,1.83.55,9,9,0,0,1,1.48.68,10.88,10.88,0,0,0-.56,1.79,12.73,12.73,0,0,0-.26,1.84h-.5A8.79,8.79,0,0,0,55,24.61a7.18,7.18,0,0,0-3.34-.73,7,7,0,0,0-2.87.64,7.8,7.8,0,0,0-2.62,2,10.23,10.23,0,0,0-1.9,3.36,14.58,14.58,0,0,0-.73,4.9,13,13,0,0,0,.75,4.68,9.35,9.35,0,0,0,1.94,3.17,7.46,7.46,0,0,0,2.7,1.79,8.62,8.62,0,0,0,3,.57,8.06,8.06,0,0,0,1.74-.19,10.73,10.73,0,0,0,1.75-.54A8.75,8.75,0,0,0,57,43.39a7.07,7.07,0,0,0,1.34-1.11l.46.29C58.64,43.06,58.48,43.57,58.33,44.08Z"/><path id="H" class="cls-4" d="M77.59,34.72q-1.35-.06-2.7-.06c-.91,0-1.81,0-2.71,0s-1.8.06-2.7.11v2c0,2,0,3.72.07,5.25s.12,3,.21,4.5a10.74,10.74,0,0,0-1.32-.07h-3.2a10.85,10.85,0,0,0-1.32.07c.1-1.47.17-3,.22-4.5s.07-3.28.07-5.25V32c0-2,0-3.71-.07-5.25s-.12-3.06-.22-4.61l1.32.13c.47,0,1,0,1.6,0s1.13,0,1.6,0,.92-.08,1.32-.13c-.12,1.55-.19,3.07-.23,4.58s0,3.24,0,5.21q.92,0,2.22.06h6.35q1.22,0,2.25-.06c0-2,0-3.7-.08-5.21s-.11-3-.21-4.58l1.32.13c.47,0,1,0,1.6,0s1.13,0,1.6,0,.92-.08,1.32-.13c-.1,1.55-.17,3.08-.21,4.61S85.57,30,85.57,32v4.85c0,2,0,3.72.07,5.25s.11,3,.21,4.5a10.74,10.74,0,0,0-1.32-.07h-3.2a10.85,10.85,0,0,0-1.32.07q.15-2.21.21-4.5c0-1.53.08-3.28.08-5.25v-2Z"/><path id="C-2" data-name="C" class="cls-5" d="M111.55,44.08a8.16,8.16,0,0,0-.28,1.51A16,16,0,0,1,104,47.05a16.37,16.37,0,0,1-5.53-.87,11.64,11.64,0,0,1-4.13-2.46A10.41,10.41,0,0,1,91.76,40a12.33,12.33,0,0,1-.89-4.7A15.15,15.15,0,0,1,92,29a11.49,11.49,0,0,1,3.09-4.2,12.42,12.42,0,0,1,4.51-2.37,19,19,0,0,1,5.37-.75,15.18,15.18,0,0,1,2,.14,20,20,0,0,1,2,.38,17.13,17.13,0,0,1,1.84.55,8.48,8.48,0,0,1,1.47.68,10.83,10.83,0,0,0-.55,1.79,14.32,14.32,0,0,0-.27,1.84H111a8.9,8.9,0,0,0-2.78-2.44,7.22,7.22,0,0,0-3.35-.73,6.93,6.93,0,0,0-2.86.64,7.7,7.7,0,0,0-2.62,2,10.05,10.05,0,0,0-1.9,3.36,14.58,14.58,0,0,0-.73,4.9,13.28,13.28,0,0,0,.74,4.68,9.51,9.51,0,0,0,1.94,3.17,7.5,7.5,0,0,0,2.71,1.79,8.56,8.56,0,0,0,3,.57,8.22,8.22,0,0,0,1.75-.19,10.93,10.93,0,0,0,1.74-.54,8.84,8.84,0,0,0,1.62-.83,7.4,7.4,0,0,0,1.34-1.11l.46.29A15.7,15.7,0,0,0,111.55,44.08Z"/></g></g><g id="Today"><path class="cls-6" d="M135.78,22.2c1.44,0,2.87.09,4.32.12s3,.06,4.53.06h4.19c.67,0,1.32,0,2,0l1.81-.07,1.51-.07a7.13,7.13,0,0,0-.4,1.3q-.1.55-.21,1.56c-1.15-.12-2.2-.19-3.15-.23s-1.86,0-2.69,0c-.36,1.36-.74,2.8-1.13,4.33s-.82,3.31-1.27,5.34-.9,4.12-1.33,6.12-.8,4-1.11,6.09c-.52,0-1-.07-1.54-.07h-3a11.08,11.08,0,0,0-1.34.07c.55-2,1.1-4.14,1.65-6.25s1-4.26,1.5-6.43c.34-1.53.65-3,.95-4.57s.58-3.06.84-4.63H140c-.86,0-1.66,0-2.4,0s-1.56.09-2.47.16c.19-.55.33-1,.43-1.38A9.73,9.73,0,0,0,135.78,22.2Z"/><path class="cls-6" d="M148.1,39.6a10.32,10.32,0,0,1,.81-4.08,10.58,10.58,0,0,1,2.2-3.31,10,10,0,0,1,3.3-2.22,10.28,10.28,0,0,1,4.08-.81,9.48,9.48,0,0,1,3.39.56,6.59,6.59,0,0,1,2.43,1.57,6.74,6.74,0,0,1,1.49,2.44,9.43,9.43,0,0,1,.5,3.13,9.74,9.74,0,0,1-.86,4.07,10.71,10.71,0,0,1-2.31,3.28,10.14,10.14,0,0,1-3.37,2.14,10.81,10.81,0,0,1-4.06.76,9,9,0,0,1-3.12-.52,6.65,6.65,0,0,1-3.94-3.92A8.53,8.53,0,0,1,148.1,39.6ZM153,41.43a11.63,11.63,0,0,0,.11,1.54,4.71,4.71,0,0,0,.41,1.42,2.74,2.74,0,0,0,.86,1,2.46,2.46,0,0,0,1.45.39,3.14,3.14,0,0,0,1.86-.59,5.43,5.43,0,0,0,1.44-1.56,11.39,11.39,0,0,0,1-2.16,19.68,19.68,0,0,0,.69-2.4c.18-.8.31-1.57.4-2.3a17.15,17.15,0,0,0,.12-1.81,11.7,11.7,0,0,0-.1-1.54,4.74,4.74,0,0,0-.42-1.41,2.59,2.59,0,0,0-.86-1,2.46,2.46,0,0,0-1.45-.4,3.08,3.08,0,0,0-1.86.6,5.35,5.35,0,0,0-1.43,1.55,11.18,11.18,0,0,0-1,2.17,19.75,19.75,0,0,0-.7,2.4,20.72,20.72,0,0,0-.39,2.29A15.12,15.12,0,0,0,153,41.43Z"/><path class="cls-6" d="M168.2,40.14a13.5,13.5,0,0,1,.63-4.1,12,12,0,0,1,1.75-3.53A9.2,9.2,0,0,1,173.25,30a6.41,6.41,0,0,1,3.37-.93,6.88,6.88,0,0,1,3,.68,5.2,5.2,0,0,1,2.22,2q.93-3.9,1.45-6.84c.34-2,.65-3.72.91-5.3.38,0,.8.09,1.25.12s.94.06,1.44.06a11.9,11.9,0,0,0,1.29-.06c.35,0,.7-.07,1-.12-.39,1.5-.78,3.13-1.19,4.89s-.8,3.53-1.2,5.34-.77,3.57-1.13,5.31-.68,3.37-1,4.88-.53,2.83-.74,4-.34,2-.41,2.56a6.72,6.72,0,0,0-1.06-.07H180a7.68,7.68,0,0,0-1.11.07,10.06,10.06,0,0,0,.34-1.15c.11-.43.21-.85.31-1.28a7.58,7.58,0,0,1-2,1.93,5.4,5.4,0,0,1-3,.86,6.94,6.94,0,0,1-2.83-.52A5,5,0,0,1,169.67,45a6.26,6.26,0,0,1-1.11-2.22A9.78,9.78,0,0,1,168.2,40.14Zm5,1a5.3,5.3,0,0,0,.16,1.29,3.66,3.66,0,0,0,.49,1.1,2.45,2.45,0,0,0,.8.77,2.2,2.2,0,0,0,1.13.28,3.21,3.21,0,0,0,2.56-1.14,8.87,8.87,0,0,0,1.58-2.74,15.55,15.55,0,0,0,.81-3.26A22.82,22.82,0,0,0,181,34.7a4,4,0,0,0-.7-2.35,2.43,2.43,0,0,0-2.16-1,2.59,2.59,0,0,0-1.62.56,5.32,5.32,0,0,0-1.25,1.43,9.67,9.67,0,0,0-.91,2c-.25.73-.46,1.46-.63,2.18a17.55,17.55,0,0,0-.36,2.06A15.85,15.85,0,0,0,173.21,41.14Z"/><path class="cls-6" d="M202.52,46.12a4.35,4.35,0,0,1-2.9.86,4,4,0,0,1-1.59-.27,2.53,2.53,0,0,1-1-.68,2.68,2.68,0,0,1-.52-.86,7.1,7.1,0,0,1-.23-.73,5.2,5.2,0,0,1-2,2.1,6.22,6.22,0,0,1-2.88.59A4.72,4.72,0,0,1,188,45.91a4.44,4.44,0,0,1-1.27-3.37,5.6,5.6,0,0,1,1-3.19,5.16,5.16,0,0,1,2.85-2,15.51,15.51,0,0,1,2-.43l2.33-.32c.55-.07,1-.14,1.34-.2a2,2,0,0,0,.82-.3,1.07,1.07,0,0,0,.43-.63,3.89,3.89,0,0,0,.13-1.16,2.81,2.81,0,0,0-.29-1.35,2.58,2.58,0,0,0-.73-.84,2.93,2.93,0,0,0-1-.45,5.22,5.22,0,0,0-1.1-.12,5.46,5.46,0,0,0-2,.36,7.47,7.47,0,0,0-1.77,1h-.18c0-.48.08-.84.11-1.09s0-.57.07-1A12.56,12.56,0,0,1,197,29.18a9.06,9.06,0,0,1,2,.22,5.35,5.35,0,0,1,1.77.71,3.83,3.83,0,0,1,1.27,1.35,4.07,4.07,0,0,1,.49,2.09,10.9,10.9,0,0,1-.16,1.72c-.11.62-.21,1.14-.31,1.54l-1,4.48a17.36,17.36,0,0,0-.35,1.84,8.19,8.19,0,0,0-.08.95,2.73,2.73,0,0,0,.18.93.75.75,0,0,0,.79.5.62.62,0,0,0,.31-.07l.26-.14ZM191.67,42.4a3.27,3.27,0,0,0,.41,1.66,1.56,1.56,0,0,0,1.49.74,2.09,2.09,0,0,0,1.36-.43,3.29,3.29,0,0,0,.87-1.08,5.63,5.63,0,0,0,.52-1.43q.18-.78.33-1.47l.53-2.76c-1.07.17-1.89.33-2.47.47a4.93,4.93,0,0,0-1.47.61A2.86,2.86,0,0,0,192,40.32,6.55,6.55,0,0,0,191.67,42.4Z"/><path class="cls-6" d="M220.19,30.69l-.61.91c-.22.32-.44.67-.68,1.06s-.52.83-.83,1.36c-2.29,3.67-4.55,7.29-6.77,10.83s-4.38,7.21-6.48,11c-.26,0-.54-.09-.82-.12a6.81,6.81,0,0,0-.93-.06,6.47,6.47,0,0,0-1.58.18c.45-.69,1-1.47,1.59-2.33s1.22-1.72,1.81-2.58,1.15-1.67,1.67-2.45l1.23-1.88c-.12-.6-.25-1.37-.41-2.33s-.32-2-.5-3-.36-2.1-.54-3.17-.34-2-.48-2.88-.34-1.9-.52-2.83-.36-1.88-.56-2.83c.34.05.7.09,1.1.12a12.92,12.92,0,0,0,1.3.06q.69,0,1.35-.06t1.23-.12q.41,3.12.76,6t.86,5.76c.23-.38.63-1,1.18-2s1.15-2,1.81-3.15,1.3-2.33,1.95-3.51,1.18-2.2,1.61-3.06a5,5,0,0,0,.63.12,4.38,4.38,0,0,0,.77.06,4.58,4.58,0,0,0,.8-.06,5,5,0,0,0,.63-.12l0,.21Z"/><path class="cls-6" d="M222.91,41.43a2.87,2.87,0,0,1,2.86,2.87,2.61,2.61,0,0,1-.84,2,3,3,0,0,1-4,0,2.58,2.58,0,0,1-.85-2,2.89,2.89,0,0,1,2.87-2.87Zm1-15.94a7.54,7.54,0,0,1,.05-.77,3,3,0,0,1,.36-1.11,2.94,2.94,0,0,1,.89-1,2.79,2.79,0,0,1,1.67-.43,2.89,2.89,0,0,1,2.09.73,2.44,2.44,0,0,1,.78,1.85,5.46,5.46,0,0,1,0,.57,3.13,3.13,0,0,1-.18.7c-.1.27-.22.61-.38,1s-.36.9-.62,1.52L224.16,39h-.86Z"/></g><g id="Employee_Intranet" data-name="Employee Intranet"><path d="M131.29,55.14v.3h-3V50.49h3v.29h-2.61v2h2.17v.3h-2.17v2.06Z"/><path d="M137.32,50.49v4.95H137V51.22a1.5,1.5,0,0,1,0-.2l-2,3.47a.16.16,0,0,1-.14.09h-.06a.15.15,0,0,1-.14-.09l-2-3.47a1.34,1.34,0,0,1,0,.2v4.22h-.32V50.49h.33s0,0,.06,0l2,3.45a1,1,0,0,1,.1.21.36.36,0,0,1,0-.11A1.17,1.17,0,0,1,135,54l1.95-3.44s0,0,.05,0h.33Z"/><path d="M140.19,50.49a1.92,1.92,0,0,1,1.31.38A1.33,1.33,0,0,1,142,52a1.31,1.31,0,0,1-.13.59,1.16,1.16,0,0,1-.35.47,1.41,1.41,0,0,1-.55.31,2.11,2.11,0,0,1-.73.11h-.92v2h-.36V50.49Zm0,2.67a1.5,1.5,0,0,0,.58-.1,1.18,1.18,0,0,0,.44-.25,1,1,0,0,0,.28-.38,1.2,1.2,0,0,0,.1-.47,1.1,1.1,0,0,0-.35-.88,1.55,1.55,0,0,0-1.05-.31h-.92v2.39Z"/><path d="M145.75,55.13v.31H143V50.49h.36v4.64Z"/><path d="M150.91,53a3.11,3.11,0,0,1-.17,1,2.39,2.39,0,0,1-.49.8,2.17,2.17,0,0,1-.75.51,2.65,2.65,0,0,1-1.92,0A2.16,2.16,0,0,1,146.36,54a3.09,3.09,0,0,1,0-2.08,2.31,2.31,0,0,1,.48-.8,2.23,2.23,0,0,1,.74-.51,2.65,2.65,0,0,1,1.92,0,2.17,2.17,0,0,1,.75.51,2.39,2.39,0,0,1,.49.8A3.11,3.11,0,0,1,150.91,53Zm-.38,0a2.67,2.67,0,0,0-.14-.93,1.92,1.92,0,0,0-.4-.7,1.84,1.84,0,0,0-.63-.44,2.18,2.18,0,0,0-.82-.15,2.07,2.07,0,0,0-.8.15,1.79,1.79,0,0,0-.64.44,2.09,2.09,0,0,0-.41.7,3.16,3.16,0,0,0,0,1.86,2.09,2.09,0,0,0,.41.7,1.79,1.79,0,0,0,.64.44,2.07,2.07,0,0,0,.8.15,2.18,2.18,0,0,0,.82-.15,1.84,1.84,0,0,0,.63-.44,1.92,1.92,0,0,0,.4-.7A2.67,2.67,0,0,0,150.53,53Z"/><path d="M153.48,53.4v2h-.35v-2l-1.84-2.91h.32a.11.11,0,0,1,.08,0,.15.15,0,0,1,.05.06l1.42,2.28a1.09,1.09,0,0,1,.08.15,1,1,0,0,1,.07.15l.06-.15a1.09,1.09,0,0,1,.08-.15l1.42-2.28,0-.06a.11.11,0,0,1,.08,0h.32Z"/><path d="M159.28,55.14v.3h-3V50.49h3v.29h-2.61v2h2.17v.3h-2.17v2.06Z"/><path d="M163.39,55.14v.3h-3V50.49h3v.29h-2.61v2h2.17v.3h-2.17v2.06Z"/><path d="M166.73,55.44h-.36V50.49h.36Z"/><path d="M172.15,50.49v4.95H172l-.08,0-.06-.05-3.21-4.3c0,.07,0,.14,0,.2v4.17h-.32V50.49h.26a.23.23,0,0,1,0,0l3.21,4.29c0-.07,0-.14,0-.2V50.49Z"/><path d="M177,50.79h-1.74v4.65h-.36V50.79h-1.75v-.3H177Z"/><path d="M181.41,55.44h-.31l-.1,0a.23.23,0,0,1-.07-.07l-1.59-2-.06-.07-.07,0-.08,0h-.78v2.24H178V50.49h1.27a2.06,2.06,0,0,1,1.28.33,1.16,1.16,0,0,1,.43,1,1.46,1.46,0,0,1-.1.52,1.42,1.42,0,0,1-.28.41,1.83,1.83,0,0,1-.45.29,2.46,2.46,0,0,1-.58.15.64.64,0,0,1,.15.14Zm-2.2-2.51a1.79,1.79,0,0,0,.59-.08,1.14,1.14,0,0,0,.44-.22,1.09,1.09,0,0,0,.28-.36,1.11,1.11,0,0,0,.09-.46.92.92,0,0,0-.34-.79,1.69,1.69,0,0,0-1-.25h-.91v2.16Z"/><path d="M186.47,55.44h-.28a.11.11,0,0,1-.08,0,.18.18,0,0,1-.05-.07l-.58-1.44h-2.43l-.58,1.44a.18.18,0,0,1-.05.07.14.14,0,0,1-.09,0h-.27l2-4.95h.35Zm-1.1-1.8-1-2.5a2.62,2.62,0,0,1-.1-.3c0,.06,0,.11,0,.16l-.06.14-1,2.5Z"/><path d="M191.28,50.49v4.95h-.17l-.07,0-.06-.05-3.21-4.3c0,.07,0,.14,0,.2v4.17h-.32V50.49h.25a.13.13,0,0,1,.06,0L191,54.84a1.41,1.41,0,0,1,0-.2V50.49Z"/><path d="M195.85,55.14v.3h-3V50.49h3v.29h-2.6v2h2.17v.3h-2.17v2.06Z"/><path d="M200.49,50.79h-1.74v4.65h-.36V50.79h-1.75v-.3h3.85Z"/></g></svg>