<?xml version="1.0" encoding="utf-8"?>
<!-- Generator: Adobe Illustrator 21.1.0, SVG Export Plug-In . SVG Version: 6.00 Build 0)  -->
<svg version="1.1" id="PCHCNow_x21__Logo_1_" xmlns="http://www.w3.org/2000/svg" xmlns:xlink="http://www.w3.org/1999/xlink"
	 x="0px" y="0px" viewBox="0 0 1023.9 473.5" style="enable-background:new 0 0 1023.9 473.5;" xml:space="preserve">
<style type="text/css">
	.st0{fill:url(#Swoosh_1_);}
	.st1{fill:url(#SVGID_1_);}
	.st2{fill:url(#SVGID_2_);}
	.st3{fill:url(#SVGID_3_);}
	.st4{fill:url(#SVGID_4_);}
	.st5{fill:url(#SVGID_5_);}
	.st6{fill:url(#SVGID_6_);}
	.st7{fill:url(#SVGID_7_);}
	.st8{fill:url(#SVGID_8_);}
</style>
<g id="PCHCNow_x21__Logo">
	<linearGradient id="Swoosh_1_" gradientUnits="userSpaceOnUse" x1="511.929" y1="473.458" x2="511.929" y2="-9.094947e-13">
		<stop  offset="0" style="stop-color:#6D4C41"/>
		<stop  offset="1" style="stop-color:#8D6E63"/>
	</linearGradient>
	<path id="Swoosh" class="st0" d="M0,272.2c0,75.1,61.9,148.1,170,200.7c0,0,0,0,0.1-0.1C78.6,424.9,51,347.2,51,278.7
		C51,144,249.2,42.4,511.9,42.4c262.8,0,460.9,101.6,460.9,236.3c0,68.4-29,146.3-120.6,194.3c0.2,0.2,0.4,0.3,0.6,0.5
		c108.8-52.6,171.1-125.9,171.1-201.3C1023.9,122.1,794.2,0,511.9,0C229.6,0,0,122.1,0,272.2"/>
	<g id="PCHCNow_x21_">
		<g id="PCHC">
			<linearGradient id="SVGID_1_" gradientUnits="userSpaceOnUse" x1="133.0575" y1="334.3167" x2="133.0575" y2="206.6581">
				<stop  offset="0" style="stop-color:#1A237E"/>
				<stop  offset="0.1125" style="stop-color:#1E2884"/>
				<stop  offset="0.4558" style="stop-color:#25328F"/>
				<stop  offset="0.8118" style="stop-color:#283593"/>
				<stop  offset="1" style="stop-color:#283593"/>
			</linearGradient>
			<path class="st1" d="M91.4,258.1c0-10.3-0.1-19.4-0.4-27.4c-0.2-8-0.6-16-1.1-24.1c2.1,0.2,4.4,0.5,6.9,0.7
				c2.5,0.2,5.3,0.3,8.4,0.3c4.3,0,8.8-0.2,13.5-0.5c4.6-0.3,9.2-0.5,13.7-0.5c8.8,0,15.7,0.7,20.6,2c5,1.3,8.9,3.2,11.7,5.7
				c4,3.2,6.9,6.8,8.7,10.8c1.9,4,2.8,8.7,2.8,14.3c0,7.1-1.2,13.1-3.5,18.2c-2.4,5.1-5.7,9.2-9.9,12.4c-4.3,3.2-9.3,5.5-15.1,7
				c-5.8,1.5-12.2,2.2-19.1,2.2h-9.5c0,9.3,0.1,18.6,0.3,27.8c0.2,9.2,0.6,18.4,1.2,27.4c-2.1-0.3-4.4-0.4-6.9-0.4
				c-2.5,0-5.3,0-8.4,0c-3.1,0-5.9,0-8.4,0c-2.5,0-4.8,0.1-6.9,0.4c0.5-7.7,0.9-15.5,1.1-23.5c0.2-8,0.4-17.1,0.4-27.4V258.1z
				 M146.8,242.3c0-4.7-0.5-8.7-1.6-11.9c-1.1-3.2-2.5-5.8-4.3-7.7c-1.8-1.9-3.9-3.3-6.3-4.2c-2.4-0.9-4.9-1.3-7.5-1.3h-4.3
				c-0.6,0-1.2,0-1.9,0c-0.6,0-1.2,0.1-1.7,0.2c-0.1,8.9-0.2,17.7-0.3,26.3c-0.1,8.6-0.1,17.3-0.1,25.9c3.1,0,6.3-0.3,9.6-0.9
				c3.3-0.6,6.3-1.9,9-3.8c2.7-1.9,5-4.7,6.7-8.3C145.9,253.1,146.8,248.3,146.8,242.3z"/>
			<linearGradient id="SVGID_2_" gradientUnits="userSpaceOnUse" x1="238.8265" y1="336.5992" x2="238.8265" y2="204.109">
				<stop  offset="0" style="stop-color:#1A237E"/>
				<stop  offset="0.1125" style="stop-color:#1E2884"/>
				<stop  offset="0.4558" style="stop-color:#25328F"/>
				<stop  offset="0.8118" style="stop-color:#283593"/>
				<stop  offset="1" style="stop-color:#283593"/>
			</linearGradient>
			<path class="st2" d="M290.9,321.1c-0.7,2.7-1.2,5.3-1.5,7.9c-10,5.1-22.7,7.6-37.9,7.6c-10.8,0-20.4-1.5-28.9-4.6
				c-8.5-3-15.7-7.3-21.6-12.8c-5.9-5.5-10.4-12-13.5-19.6c-3.1-7.6-4.6-15.7-4.6-24.5c0-12.9,2-23.8,6-32.8c4-9,9.4-16.3,16.2-21.9
				c6.8-5.6,14.6-9.8,23.5-12.4c8.9-2.6,18.3-3.9,28.1-3.9c3.2,0,6.6,0.3,10.2,0.7c3.6,0.5,7.1,1.1,10.4,2c3.3,0.8,6.5,1.8,9.6,2.9
				c3,1.1,5.6,2.3,7.7,3.5c-1.2,3.1-2.2,6.2-2.9,9.4c-0.7,3.2-1.1,6.3-1.4,9.6h-2.6c-4.7-5.9-9.5-10.2-14.5-12.7
				c-5-2.5-10.8-3.8-17.5-3.8c-5,0-9.9,1.1-15,3.3c-5,2.2-9.6,5.6-13.7,10.2c-4.1,4.6-7.4,10.4-9.9,17.6c-2.5,7.1-3.8,15.6-3.8,25.6
				c0,9.5,1.3,17.7,3.9,24.4c2.6,6.8,6,12.3,10.1,16.5c4.1,4.3,8.9,7.4,14.1,9.4c5.3,2,10.6,3,15.9,3c3,0,6-0.3,9.1-1
				c3.1-0.7,6.1-1.6,9.1-2.8c3-1.2,5.8-2.6,8.5-4.4c2.7-1.7,5-3.7,7-5.8l2.4,1.5C292.6,315.8,291.7,318.4,290.9,321.1z"/>
			<linearGradient id="SVGID_3_" gradientUnits="userSpaceOnUse" x1="361.7678" y1="334.3167" x2="361.7678" y2="206.6581">
				<stop  offset="0" style="stop-color:#1A237E"/>
				<stop  offset="0.1125" style="stop-color:#1E2884"/>
				<stop  offset="0.4558" style="stop-color:#25328F"/>
				<stop  offset="0.8118" style="stop-color:#283593"/>
				<stop  offset="1" style="stop-color:#283593"/>
			</linearGradient>
			<path class="st3" d="M375.9,272.3c-4.7-0.2-9.4-0.3-14.1-0.3c-4.7,0-9.4,0.1-14.1,0.2c-4.7,0.1-9.4,0.3-14.1,0.6v10.6
				c0,10.3,0.1,19.4,0.4,27.4c0.2,8,0.6,15.8,1.1,23.5c-2.1-0.3-4.4-0.4-6.9-0.4c-2.5,0-5.3,0-8.4,0c-3.1,0-5.9,0-8.4,0
				c-2.5,0-4.8,0.1-6.9,0.4c0.5-7.7,0.9-15.5,1.1-23.5c0.2-8,0.4-17.1,0.4-27.4v-25.3c0-10.3-0.1-19.4-0.4-27.4
				c-0.2-8-0.6-16-1.1-24.1c2.1,0.2,4.4,0.5,6.9,0.7c2.5,0.2,5.3,0.3,8.4,0.3c3.1,0,5.9-0.1,8.4-0.3c2.5-0.2,4.8-0.4,6.9-0.7
				c-0.6,8.1-1,16-1.2,23.9c-0.2,7.9-0.3,16.9-0.3,27.2c3.2,0.1,7.1,0.2,11.6,0.3c4.5,0.1,10.1,0.1,16.8,0.1c6.7,0,12.1,0,16.4-0.1
				c4.2-0.1,8.1-0.2,11.7-0.3c0-10.3-0.1-19.4-0.4-27.2c-0.2-7.9-0.6-15.8-1.1-23.9c2.1,0.2,4.4,0.5,6.9,0.7
				c2.5,0.2,5.3,0.3,8.4,0.3c3.1,0,5.9-0.1,8.4-0.3c2.5-0.2,4.8-0.4,6.9-0.7c-0.5,8.1-0.9,16.1-1.1,24.1c-0.2,8-0.4,17.1-0.4,27.4
				v25.3c0,10.3,0.1,19.4,0.4,27.4c0.2,8,0.6,15.8,1.1,23.5c-2.1-0.3-4.4-0.4-6.9-0.4c-2.5,0-5.3,0-8.4,0c-3.1,0-5.9,0-8.4,0
				c-2.5,0-4.8,0.1-6.9,0.4c0.5-7.7,0.9-15.5,1.1-23.5c0.2-8,0.4-17.1,0.4-27.4v-10.6C385.3,272.7,380.6,272.5,375.9,272.3z"/>
			<linearGradient id="SVGID_4_" gradientUnits="userSpaceOnUse" x1="485.35" y1="336.5992" x2="485.35" y2="204.109">
				<stop  offset="0" style="stop-color:#1A237E"/>
				<stop  offset="0.1125" style="stop-color:#1E2884"/>
				<stop  offset="0.4558" style="stop-color:#25328F"/>
				<stop  offset="0.8118" style="stop-color:#283593"/>
				<stop  offset="1" style="stop-color:#283593"/>
			</linearGradient>
			<path class="st4" d="M537.5,321.1c-0.7,2.7-1.2,5.3-1.5,7.9c-10,5.1-22.7,7.6-37.9,7.6c-10.8,0-20.4-1.5-28.9-4.6
				c-8.5-3-15.7-7.3-21.6-12.8c-5.9-5.5-10.4-12-13.5-19.6c-3.1-7.6-4.6-15.7-4.6-24.5c0-12.9,2-23.8,6-32.8c4-9,9.4-16.3,16.2-21.9
				c6.8-5.6,14.6-9.8,23.5-12.4c8.9-2.6,18.3-3.9,28.1-3.9c3.2,0,6.6,0.3,10.2,0.7c3.6,0.5,7.1,1.1,10.4,2c3.3,0.8,6.5,1.8,9.6,2.9
				c3,1.1,5.6,2.3,7.7,3.5c-1.2,3.1-2.2,6.2-2.9,9.4c-0.7,3.2-1.1,6.3-1.4,9.6h-2.6c-4.7-5.9-9.5-10.2-14.5-12.7
				c-5-2.5-10.8-3.8-17.5-3.8c-5,0-9.9,1.1-15,3.3c-5,2.2-9.6,5.6-13.7,10.2c-4.1,4.6-7.4,10.4-9.9,17.6c-2.5,7.1-3.8,15.6-3.8,25.6
				c0,9.5,1.3,17.7,3.9,24.4c2.6,6.8,6,12.3,10.1,16.5c4.1,4.3,8.9,7.4,14.1,9.4c5.3,2,10.6,3,15.9,3c3,0,6-0.3,9.1-1
				c3.1-0.7,6.1-1.6,9.1-2.8c3-1.2,5.8-2.6,8.5-4.4c2.7-1.7,5-3.7,7-5.8l2.4,1.5C539.1,315.8,538.2,318.4,537.5,321.1z"/>
		</g>
		<g id="Now_x21_">
			<linearGradient id="SVGID_5_" gradientUnits="userSpaceOnUse" x1="548.7075" y1="270.4874" x2="664.2877" y2="270.4874">
				<stop  offset="0" style="stop-color:#B71C1C"/>
				<stop  offset="0.3927" style="stop-color:#C22525"/>
				<stop  offset="0.8118" style="stop-color:#C62828"/>
				<stop  offset="1" style="stop-color:#C62828"/>
			</linearGradient>
			<path class="st5" d="M552.4,243.6c0-8.5-0.1-15.7-0.4-21.6c-0.2-5.8-0.4-11-0.6-15.4c3.5,0.6,6.3,0.9,8.4,0.9
				c2.1,0,4.9-0.3,8.4-0.9c13.5,15,26.9,29.7,40,44.2c13.2,14.5,26.7,29.2,40.6,44.2v-16.2v-18c0-6.1,0-12-0.1-17.9
				c-0.1-5.9-0.1-11.3-0.2-16.3c-0.1-5-0.2-9.2-0.4-12.8c-0.2-3.6-0.4-6-0.7-7.2c3.5,0.6,6.3,0.9,8.4,0.9c2.1,0,4.9-0.3,8.4-0.9
				c-0.6,11.3-1.1,21.5-1.5,30.6c-0.4,9.1-0.7,17.7-0.9,25.7c-0.2,8.1-0.4,16-0.5,23.9c-0.1,7.9-0.1,16.3-0.1,25.2v22.3
				c-2.5-0.3-5-0.4-7.6-0.4c-2.7,0-5.1,0.1-7.2,0.4c-25.5-29.7-52.6-59.6-81.2-89.8c-0.1,3.6-0.2,7.2-0.3,10.8
				c-0.1,3.6-0.1,7.2-0.1,11v21.6c0,7.4,0,13.8,0.1,19c0.1,5.2,0.2,9.6,0.3,13.2c0.1,3.6,0.2,6.5,0.4,8.8c0.1,2.3,0.2,4.1,0.4,5.5
				c-1.5-0.3-3-0.4-4.5-0.4s-2.9,0-4.3,0c-2.9,0-5.7,0.1-8.5,0.4c0.2-1,0.6-4.5,0.9-10.6c0.4-6.1,0.8-13.5,1.2-22.2
				c0.4-8.7,0.8-18.2,1.1-28.4C552.3,262.9,552.4,253.1,552.4,243.6z"/>
			<linearGradient id="SVGID_6_" gradientUnits="userSpaceOnUse" x1="672.001" y1="289.6267" x2="763.053" y2="289.6267">
				<stop  offset="0" style="stop-color:#B71C1C"/>
				<stop  offset="0.3927" style="stop-color:#C22525"/>
				<stop  offset="0.8118" style="stop-color:#C62828"/>
				<stop  offset="1" style="stop-color:#C62828"/>
			</linearGradient>
			<path class="st6" d="M672,292.1c0-8.3,1.3-15.5,3.8-21.7c2.5-6.2,5.9-11.4,10.1-15.5c4.2-4.1,9.1-7.2,14.6-9.3
				c5.5-2,11.2-3.1,17-3.1c14.5,0,25.7,4.1,33.6,12.3c7.9,8.2,11.9,19.3,11.9,33.3c0,7.6-1.1,14.4-3.3,20.4
				c-2.2,6.1-5.4,11.2-9.4,15.5c-4,4.3-8.8,7.5-14.4,9.6c-5.6,2.1-11.7,3.2-18.4,3.2c-5.6,0-11.1-0.7-16.4-2.2
				c-5.4-1.5-10.3-4-14.6-7.5c-4.3-3.5-7.8-8.1-10.5-13.8C673.3,307.4,672,300.4,672,292.1z M735.6,285.3c0-10.9-1.4-19.4-4.1-25.4
				c-2.7-6-7.2-9-13.6-9c-5.7,0-10.2,3.3-13.5,10c-3.3,6.7-4.9,17.2-4.9,31.4c0,5.2,0.3,10,0.9,14.5c0.6,4.5,1.6,8.3,3.1,11.6
				c1.4,3.3,3.3,5.9,5.6,7.7c2.3,1.9,5.2,2.8,8.6,2.8C729.6,328.9,735.6,314.4,735.6,285.3z"/>
			<linearGradient id="SVGID_7_" gradientUnits="userSpaceOnUse" x1="762.1669" y1="289.6267" x2="901.5321" y2="289.6267">
				<stop  offset="0" style="stop-color:#B71C1C"/>
				<stop  offset="0.3927" style="stop-color:#C22525"/>
				<stop  offset="0.8118" style="stop-color:#C62828"/>
				<stop  offset="1" style="stop-color:#C62828"/>
			</linearGradient>
			<path class="st7" d="M886.5,244.9c2.7,0.6,5.1,0.9,7.2,0.9c1.2,0,2.4-0.1,3.6-0.3c1.2-0.2,2.6-0.4,4.2-0.7c-0.9,1.6-2,4.3-3.5,8
				c-1.5,3.7-3.1,8.1-4.9,13.2c-1.8,5.1-3.7,10.6-5.8,16.6c-2,6-4.1,12-6,18.1c-2,6.1-3.9,12-5.9,17.8c-1.9,5.8-3.6,11-5.1,15.6
				c-1.7-0.3-3.4-0.4-5.1-0.4c-1.7,0-3.4,0-5.1,0c-1.7,0-3.5,0-5.2,0c-1.7,0-3.5,0.1-5.2,0.4c-1.5-4.7-3-9.8-4.6-15.1
				c-1.6-5.4-3.2-10.7-4.8-16c-1.6-5.3-3.2-10.4-4.6-15.4c-1.5-5-2.9-9.7-4.1-14h-0.4c-3.2,10.4-6.4,20.6-9.6,30.7
				c-3.2,10-6.2,20-9,29.9c-1.7-0.3-3.5-0.4-5.3-0.4c-1.8,0-3.6,0-5.3,0c-1.7,0-3.5,0-5.4,0c-1.9,0-3.7,0.1-5.6,0.4
				c-1.4-4.6-2.9-9.9-4.7-15.9c-1.8-6-3.7-12.1-5.7-18.3c-2-6.2-4-12.3-5.9-18.4c-2-6.1-3.8-11.6-5.5-16.6c-1.7-5-3.1-9.3-4.4-12.9
				c-1.2-3.6-2.1-6-2.6-7.2c2.7,0.3,5.2,0.5,7.5,0.7c2.3,0.2,4.6,0.3,7,0.3c2.2,0,4.5-0.1,6.8-0.3c2.3-0.2,4.6-0.4,6.8-0.7
				c3,10.8,6.1,21.8,9.3,33.2c3.2,11.3,6.3,21.7,9.1,31.1h0.4c3.6-10.9,6.9-21.6,9.8-32.1c3-10.5,5.9-21.2,8.9-32.1
				c1.7,0.3,3.5,0.5,5.2,0.7c1.7,0.2,3.5,0.3,5.2,0.3c1.7,0,3.5-0.1,5.2-0.3c1.7-0.2,3.5-0.4,5.2-0.7c3,10.9,6,21.6,9.1,32.1
				c3.1,10.5,6.3,21.2,9.7,32.1h0.4C874.5,287.7,880.8,266.2,886.5,244.9z"/>
			<linearGradient id="SVGID_8_" gradientUnits="userSpaceOnUse" x1="908.7302" y1="270.6021" x2="939.9472" y2="270.6021">
				<stop  offset="0" style="stop-color:#B71C1C"/>
				<stop  offset="0.3927" style="stop-color:#C22525"/>
				<stop  offset="0.8118" style="stop-color:#C62828"/>
				<stop  offset="1" style="stop-color:#C62828"/>
			</linearGradient>
			<path class="st8" d="M921.7,294.1c-3-14.6-5.3-26.4-7.1-35.3c-1.7-8.9-3-16-3.9-21.3c-0.9-5.3-1.4-9.2-1.7-11.7
				c-0.2-2.5-0.4-4.7-0.4-6.6c0-4.5,1.4-8.1,4.3-10.8c2.8-2.7,6.6-4.1,11.3-4.1c4.7,0,8.5,1.4,11.3,4.1c2.8,2.7,4.3,6.3,4.3,10.8
				c0,1.9-0.1,4.1-0.4,6.6c-0.2,2.5-0.8,6.4-1.7,11.7c-0.9,5.3-2.2,12.4-3.9,21.3c-1.7,8.9-4.1,20.7-7.1,35.3H921.7z M909.1,322.2
				c0-4.2,1.5-7.8,4.5-10.8c3-3,6.6-4.5,10.8-4.5c4.2,0,7.8,1.5,10.8,4.5c3,3,4.5,6.6,4.5,10.8c0,4.2-1.5,7.7-4.5,10.5
				c-3,2.8-6.6,4.2-10.8,4.2c-4.2,0-7.8-1.4-10.8-4.2C910.6,329.9,909.1,326.4,909.1,322.2z"/>
		</g>
	</g>
</g>
</svg>
